<?xml version="1.0" encoding="UTF-8"?><svg id="a" xmlns="http://www.w3.org/2000/svg" viewBox="0 0 775.39 170.47"><defs><style>.b{fill:none;stroke:#274e13;stroke-linejoin:round;stroke-width:2px;}.c{fill:#91ab86;}.c,.d{fill-rule:evenodd;}.d{fill:#b6d7a8;}.e{fill:#696;}</style></defs><path class="b" d="M1,1H174.8V169.47H1V1Z"/><path class="d" d="M10.68,104.26h0c0-26.24,29.02-49.15,70.56-55.71v10.1l23.52-27.25L81.24,7.81v10.1h0C39.7,24.47,10.68,47.38,10.68,73.62v30.64Z"/><path class="c" d="M104.76,131.15h0c-42.31,0-79.42-17.27-90.68-42.22h0c-7.82,17.32-1.97,35.87,15.82,50.17,17.79,14.29,45.48,22.69,74.86,22.69v-30.64Z"/><path class="b" d="M10.68,104.26h0c0-26.24,29.02-49.15,70.56-55.71v10.1l23.52-27.25L81.24,7.81v10.1h0C39.7,24.47,10.68,47.38,10.68,73.62v30.64h0c0,31.78,42.12,57.54,94.08,57.54v-30.64h0c-42.31,0-79.42-17.27-90.68-42.22"/><path class="d" d="M107.8,36.57l28.5-24.52,28.5,24.52h-14.25v125.25h-28.5V36.57h-14.25Z"/><path class="b" d="M107.8,36.57l28.5-24.52,28.5,24.52h-14.25v125.25h-28.5V36.57h-14.25Z"/><path d="M274.97,87.7l21.38,3.23c-4.17,11.57-10.42,20.42-18.77,26.55-8.34,6.11-18.12,9.17-29.33,9.17-12.6,0-22.46-3.8-29.56-11.39-7.1-7.59-10.66-18.61-10.66-33.05,0-11.72,2.38-22.44,7.14-32.17,4.76-9.73,11.36-17.17,19.8-22.33,8.44-5.16,17.63-7.73,27.56-7.73,11.16,0,20.18,2.99,27.06,8.97,6.9,5.98,10.95,14.12,12.17,24.44l-20.33,1.97c-1.12-6-3.29-10.35-6.5-13.05-3.21-2.7-7.48-4.05-12.83-4.05-5.86,0-11.34,1.78-16.42,5.34-5.08,3.56-9.15,9.13-12.2,16.7-3.04,7.57-4.56,15.13-4.56,22.67,0,8.25,1.98,14.62,5.94,19.12,3.96,4.5,8.89,6.75,14.8,6.75,5.49,0,10.52-1.78,15.08-5.34,4.57-3.56,7.98-8.83,10.23-15.81Zm28.41,37.12l21.58-103.08h21.17l-21.52,103.08h-21.23Zm41.48,0l21.59-103.08h21.16l-17.92,85.84h52.45l-3.59,17.23h-73.69Zm90.21-31.02c0-13.82,3.9-24.85,11.7-33.08,7.81-8.23,18.07-12.34,30.77-12.34,11.02,0,19.62,3.04,25.81,9.11,6.19,6.07,9.28,14.24,9.28,24.5,0,12.09-3.87,22.55-11.61,31.38-7.73,8.81-18.09,13.22-31.08,13.22-7.03,0-13.27-1.41-18.7-4.22-5.44-2.82-9.49-6.81-12.17-11.97-2.67-5.16-4-10.69-4-16.59Zm57.52-14.41c0-4.78-1.4-8.61-4.19-11.5-2.78-2.89-6.38-4.33-10.78-4.33s-8.23,1.35-11.61,4.05c-3.38,2.7-6,6.61-7.88,11.75-1.88,5.12-2.81,9.84-2.81,14.16,0,5.34,1.45,9.59,4.36,12.73,2.91,3.14,6.56,4.7,10.97,4.7,5.53,0,10.17-2.36,13.92-7.09,5.34-6.71,8.02-14.86,8.02-24.47Zm26.45,49.36l21.3,3.09c0,2.16,.35,3.79,1.05,4.89,.71,1.1,1.85,2.04,3.42,2.81s3.72,1.16,6.44,1.16c4.26,0,7.68-.84,10.27-2.53,1.92-1.31,3.48-3.42,4.7-6.33,.75-1.82,1.71-5.81,2.89-11.95l.7-3.52c-6.99,5.81-14.21,8.72-21.66,8.72s-13.31-2.58-18-7.73-7.03-12.7-7.03-22.64c0-8.77,1.59-16.81,4.78-24.12s7.66-12.84,13.42-16.59c5.77-3.75,11.66-5.62,17.66-5.62,4.97,0,9.52,1.31,13.64,3.94s7.33,6.31,9.62,11.05l2.81-13.22h18.92l-12.94,62.22c-2.11,9.99-3.9,17.11-5.36,21.37-1.45,4.27-3.11,7.67-4.98,10.2s-4.24,4.65-7.11,6.36c-2.85,1.72-6.23,2.95-10.12,3.7-3.89,.75-8.1,1.12-12.64,1.12-10.55,0-18.53-1.81-23.92-5.42-5.39-3.6-8.08-9.6-8.08-18,0-.89,.07-1.87,.22-2.95Zm23.77-36.08c0,5.68,1.28,10.01,3.83,12.98,2.55,2.97,5.75,4.45,9.59,4.45,3.52,0,6.93-1.33,10.23-4,3.3-2.68,5.83-6.47,7.59-11.39,1.76-4.93,2.64-9.69,2.64-14.28,0-5.29-1.43-9.55-4.3-12.78-2.85-3.24-6.16-4.86-9.91-4.86s-6.93,1.43-9.95,4.3c-3.02,2.85-5.52,7.26-7.48,13.2-1.5,4.59-2.25,8.72-2.25,12.38Zm68.2,1.12c0-13.82,3.9-24.85,11.7-33.08,7.81-8.23,18.07-12.34,30.77-12.34,11.02,0,19.62,3.04,25.81,9.11,6.19,6.07,9.28,14.24,9.28,24.5,0,12.09-3.87,22.55-11.61,31.38-7.73,8.81-18.09,13.22-31.08,13.22-7.03,0-13.27-1.41-18.7-4.22-5.44-2.82-9.49-6.81-12.17-11.97-2.67-5.16-4-10.69-4-16.59Zm57.52-14.41c0-4.78-1.4-8.61-4.19-11.5-2.78-2.89-6.38-4.33-10.78-4.33s-8.23,1.35-11.61,4.05c-3.38,2.7-6,6.61-7.88,11.75-1.88,5.12-2.81,9.84-2.81,14.16,0,5.34,1.45,9.59,4.36,12.73,2.91,3.14,6.56,4.7,10.97,4.7,5.53,0,10.17-2.36,13.92-7.09,5.34-6.71,8.02-14.86,8.02-24.47Zm43.38-29.25h19.12l-1.97,9.7c4.78-4.12,9.24-7.07,13.39-8.83,4.16-1.76,8.53-2.64,13.12-2.64,6.14,0,10.97,1.76,14.52,5.28,3.54,3.51,5.31,8.17,5.31,13.98,0,2.62-.78,7.59-2.33,14.91l-8.78,42.27h-20.19l8.86-42.41c1.31-6.32,1.97-10.09,1.97-11.31,0-2.58-.76-4.61-2.28-6.08-1.52-1.48-3.64-2.22-6.36-2.22-2.96,0-6.24,1.24-9.86,3.73-3.6,2.48-6.44,5.76-8.5,9.83-1.5,2.91-3.19,8.84-5.06,17.8l-6.39,30.66h-20.19l15.61-74.67Z"/><path class="e" d="M269.87,82.61l21.38,3.23c-4.17,11.57-10.42,20.42-18.77,26.55-8.34,6.11-18.12,9.17-29.33,9.17-12.6,0-22.46-3.8-29.56-11.39-7.1-7.59-10.66-18.61-10.66-33.05,0-11.72,2.38-22.44,7.14-32.17,4.76-9.73,11.36-17.17,19.8-22.33,8.44-5.16,17.62-7.73,27.56-7.73,11.16,0,20.18,2.99,27.06,8.97,6.9,5.98,10.95,14.12,12.17,24.44l-20.33,1.97c-1.12-6-3.29-10.35-6.5-13.05-3.21-2.7-7.48-4.05-12.83-4.05-5.86,0-11.34,1.78-16.42,5.34-5.08,3.56-9.15,9.13-12.2,16.7-3.04,7.57-4.56,15.13-4.56,22.67,0,8.25,1.98,14.62,5.94,19.12,3.96,4.5,8.89,6.75,14.8,6.75,5.49,0,10.52-1.78,15.08-5.34,4.57-3.56,7.98-8.83,10.23-15.81Zm28.41,37.12l21.58-103.08h21.17l-21.52,103.08h-21.23Zm41.48,0l21.59-103.08h21.16l-17.92,85.84h52.45l-3.59,17.23h-73.69Zm90.21-31.02c0-13.82,3.9-24.85,11.7-33.08,7.81-8.23,18.07-12.34,30.77-12.34,11.02,0,19.62,3.04,25.81,9.11s9.28,14.24,9.28,24.5c0,12.09-3.87,22.55-11.61,31.38-7.73,8.81-18.09,13.22-31.08,13.22-7.03,0-13.27-1.41-18.7-4.22-5.44-2.82-9.49-6.81-12.17-11.97-2.67-5.16-4-10.69-4-16.59Zm57.52-14.41c0-4.78-1.4-8.61-4.19-11.5-2.78-2.89-6.38-4.33-10.78-4.33s-8.23,1.35-11.61,4.05c-3.38,2.7-6,6.61-7.88,11.75-1.88,5.12-2.81,9.84-2.81,14.16,0,5.34,1.45,9.59,4.36,12.73,2.91,3.14,6.56,4.7,10.97,4.7,5.53,0,10.17-2.36,13.92-7.09,5.34-6.71,8.02-14.86,8.02-24.47Zm26.45,49.36l21.3,3.09c0,2.16,.35,3.79,1.05,4.89,.71,1.1,1.85,2.04,3.42,2.81,1.57,.77,3.72,1.16,6.44,1.16,4.26,0,7.68-.84,10.27-2.53,1.92-1.31,3.48-3.42,4.7-6.33,.75-1.82,1.71-5.81,2.89-11.95l.7-3.52c-6.99,5.81-14.21,8.72-21.66,8.72-7.31,0-13.31-2.58-18-7.73-4.69-5.16-7.03-12.7-7.03-22.64,0-8.77,1.59-16.81,4.78-24.12s7.66-12.84,13.42-16.59c5.77-3.75,11.66-5.62,17.66-5.62,4.97,0,9.52,1.31,13.64,3.94s7.33,6.31,9.62,11.05l2.81-13.22h18.92l-12.94,62.22c-2.11,9.99-3.9,17.11-5.36,21.38-1.45,4.27-3.11,7.67-4.98,10.2s-4.24,4.65-7.11,6.36c-2.85,1.72-6.23,2.95-10.12,3.7-3.89,.75-8.1,1.12-12.64,1.12-10.55,0-18.53-1.81-23.92-5.42-5.39-3.6-8.08-9.6-8.08-18,0-.89,.07-1.87,.22-2.95Zm23.77-36.08c0,5.68,1.28,10.01,3.83,12.98,2.55,2.97,5.75,4.45,9.59,4.45,3.52,0,6.93-1.33,10.23-4,3.3-2.68,5.83-6.47,7.59-11.39,1.76-4.93,2.64-9.69,2.64-14.28,0-5.29-1.43-9.55-4.3-12.78-2.85-3.24-6.16-4.86-9.91-4.86s-6.93,1.43-9.95,4.3c-3.02,2.85-5.52,7.26-7.48,13.2-1.5,4.59-2.25,8.72-2.25,12.38Zm68.2,1.12c0-13.82,3.9-24.85,11.7-33.08,7.81-8.23,18.07-12.34,30.77-12.34,11.02,0,19.62,3.04,25.81,9.11s9.28,14.24,9.28,24.5c0,12.09-3.87,22.55-11.61,31.38-7.73,8.81-18.09,13.22-31.08,13.22-7.03,0-13.27-1.41-18.7-4.22-5.44-2.82-9.49-6.81-12.17-11.97-2.67-5.16-4-10.69-4-16.59Zm57.52-14.41c0-4.78-1.4-8.61-4.19-11.5-2.78-2.89-6.38-4.33-10.78-4.33s-8.23,1.35-11.61,4.05c-3.38,2.7-6,6.61-7.88,11.75-1.88,5.12-2.81,9.84-2.81,14.16,0,5.34,1.45,9.59,4.36,12.73,2.91,3.14,6.56,4.7,10.97,4.7,5.53,0,10.17-2.36,13.92-7.09,5.34-6.71,8.02-14.86,8.02-24.47Zm43.38-29.25h19.12l-1.97,9.7c4.78-4.12,9.24-7.07,13.39-8.83,4.16-1.76,8.53-2.64,13.12-2.64,6.14,0,10.97,1.76,14.52,5.28,3.54,3.51,5.31,8.17,5.31,13.98,0,2.62-.78,7.59-2.33,14.91l-8.78,42.27h-20.19l8.86-42.41c1.31-6.32,1.97-10.09,1.97-11.31,0-2.58-.76-4.61-2.28-6.08-1.52-1.48-3.64-2.22-6.36-2.22-2.96,0-6.24,1.24-9.86,3.73-3.6,2.48-6.44,5.76-8.5,9.83-1.5,2.91-3.19,8.84-5.06,17.8l-6.39,30.66h-20.19l15.61-74.67Z"/></svg>