<?xml version="1.0" encoding="utf-8"?>
<!-- Generator: Adobe Illustrator 27.0.0, SVG Export Plug-In . SVG Version: 6.00 Build 0)  -->
<svg version="1.1" id="Layer_2" xmlns="http://www.w3.org/2000/svg" xmlns:xlink="http://www.w3.org/1999/xlink" x="0px" y="0px"
	 viewBox="0 0 775.4 170.5" style="enable-background:new 0 0 775.4 170.5;" xml:space="preserve">
<style type="text/css">
	.st0{fill-rule:evenodd;clip-rule:evenodd;fill:#FFFFFF;}
	.st1{fill:none;stroke:#274E13;stroke-width:2;stroke-linejoin:round;stroke-miterlimit:10;}
	.st2{fill-rule:evenodd;clip-rule:evenodd;fill:#B6D7A8;}
	.st3{fill-rule:evenodd;clip-rule:evenodd;fill:#91AB86;}
	.st4{fill:#669966;}
</style>
<path class="st0" d="M1,1h173.8v168.5H1L1,1z"/>
<path class="st1" d="M1,1h173.8v168.5H1L1,1z"/>
<path class="st2" d="M10.7,104.3L10.7,104.3c0-26.2,29-49.1,70.6-55.7v10.1l23.5-27.2L81.2,7.8v10.1l0,0
	c-41.5,6.6-70.6,29.5-70.6,55.7L10.7,104.3z"/>
<path class="st3" d="M104.8,131.2L104.8,131.2c-42.3,0-79.4-17.3-90.7-42.2l0,0c-7.8,17.3-2,35.9,15.8,50.2s45.5,22.7,74.9,22.7
	L104.8,131.2z"/>
<path class="st1" d="M10.7,104.3L10.7,104.3c0-26.2,29-49.1,70.6-55.7v10.1l23.5-27.2L81.2,7.8v10.1l0,0
	c-41.5,6.6-70.6,29.5-70.6,55.7L10.7,104.3L10.7,104.3c0,31.8,42.1,57.5,94.1,57.5v-30.6l0,0c-42.3,0-79.4-17.3-90.7-42.2"/>
<path class="st2" d="M107.8,36.6l28.5-24.5l28.5,24.5h-14.3v125.2h-28.5V36.6H107.8z"/>
<path class="st1" d="M107.8,36.6l28.5-24.5l28.5,24.5h-14.3v125.2h-28.5V36.6H107.8z"/>
<path d="M275,87.7l21.4,3.2c-4.2,11.6-10.4,20.4-18.8,26.5c-8.3,6.1-18.1,9.2-29.3,9.2c-12.6,0-22.5-3.8-29.6-11.4
	c-7.1-7.6-10.7-18.6-10.7-33c0-11.7,2.4-22.4,7.1-32.2c4.8-9.7,11.4-17.2,19.8-22.3c8.4-5.2,17.6-7.7,27.6-7.7c11.2,0,20.2,3,27.1,9
	c6.9,6,11,14.1,12.2,24.4l-20.3,2c-1.1-6-3.3-10.3-6.5-13c-3.2-2.7-7.5-4-12.8-4c-5.9,0-11.3,1.8-16.4,5.3
	c-5.1,3.6-9.2,9.1-12.2,16.7c-3,7.6-4.6,15.1-4.6,22.7c0,8.2,2,14.6,5.9,19.1c4,4.5,8.9,6.8,14.8,6.8c5.5,0,10.5-1.8,15.1-5.3
	C269.3,100,272.7,94.7,275,87.7z M303.4,124.8L325,21.7h21.2l-21.5,103.1H303.4z M344.9,124.8l21.6-103.1h21.2l-17.9,85.8h52.5
	l-3.6,17.2H344.9z M435.1,93.8c0-13.8,3.9-24.8,11.7-33.1c7.8-8.2,18.1-12.3,30.8-12.3c11,0,19.6,3,25.8,9.1s9.3,14.2,9.3,24.5
	c0,12.1-3.9,22.6-11.6,31.4c-7.7,8.8-18.1,13.2-31.1,13.2c-7,0-13.3-1.4-18.7-4.2c-5.4-2.8-9.5-6.8-12.2-12
	C436.4,105.2,435.1,99.7,435.1,93.8z M492.6,79.4c0-4.8-1.4-8.6-4.2-11.5c-2.8-2.9-6.4-4.3-10.8-4.3c-4.4,0-8.2,1.3-11.6,4
	c-3.4,2.7-6,6.6-7.9,11.8c-1.9,5.1-2.8,9.8-2.8,14.2c0,5.3,1.5,9.6,4.4,12.7c2.9,3.1,6.6,4.7,11,4.7c5.5,0,10.2-2.4,13.9-7.1
	C489.9,97.2,492.6,89,492.6,79.4z M519,128.8l21.3,3.1c0,2.2,0.3,3.8,1,4.9c0.7,1.1,1.8,2,3.4,2.8s3.7,1.2,6.4,1.2
	c4.3,0,7.7-0.8,10.3-2.5c1.9-1.3,3.5-3.4,4.7-6.3c0.8-1.8,1.7-5.8,2.9-12l0.7-3.5c-7,5.8-14.2,8.7-21.7,8.7c-7.3,0-13.3-2.6-18-7.7
	s-7-12.7-7-22.6c0-8.8,1.6-16.8,4.8-24.1s7.7-12.8,13.4-16.6c5.8-3.8,11.7-5.6,17.7-5.6c5,0,9.5,1.3,13.6,3.9s7.3,6.3,9.6,11
	l2.8-13.2H604L591,112.4c-2.1,10-3.9,17.1-5.4,21.4c-1.4,4.3-3.1,7.7-5,10.2s-4.2,4.7-7.1,6.4c-2.9,1.7-6.2,3-10.1,3.7
	c-3.9,0.8-8.1,1.1-12.6,1.1c-10.6,0-18.5-1.8-23.9-5.4c-5.4-3.6-8.1-9.6-8.1-18C518.8,130.8,518.9,129.8,519,128.8z M542.8,92.7
	c0,5.7,1.3,10,3.8,13c2.6,3,5.8,4.5,9.6,4.5c3.5,0,6.9-1.3,10.2-4c3.3-2.7,5.8-6.5,7.6-11.4c1.8-4.9,2.6-9.7,2.6-14.3
	c0-5.3-1.4-9.6-4.3-12.8c-2.9-3.2-6.2-4.9-9.9-4.9c-3.6,0-6.9,1.4-10,4.3c-3,2.9-5.5,7.3-7.5,13.2C543.5,84.9,542.8,89,542.8,92.7z
	 M611,93.8c0-13.8,3.9-24.8,11.7-33.1c7.8-8.2,18.1-12.3,30.8-12.3c11,0,19.6,3,25.8,9.1c6.2,6.1,9.3,14.2,9.3,24.5
	c0,12.1-3.9,22.6-11.6,31.4c-7.7,8.8-18.1,13.2-31.1,13.2c-7,0-13.3-1.4-18.7-4.2c-5.4-2.8-9.5-6.8-12.2-12
	C612.3,105.2,611,99.7,611,93.8z M668.5,79.4c0-4.8-1.4-8.6-4.2-11.5c-2.8-2.9-6.4-4.3-10.8-4.3c-4.4,0-8.2,1.3-11.6,4
	c-3.4,2.7-6,6.6-7.9,11.8c-1.9,5.1-2.8,9.8-2.8,14.2c0,5.3,1.5,9.6,4.4,12.7c2.9,3.1,6.6,4.7,11,4.7c5.5,0,10.2-2.4,13.9-7.1
	C665.8,97.2,668.5,89,668.5,79.4z M711.9,50.2H731l-2,9.7c4.8-4.1,9.2-7.1,13.4-8.8c4.2-1.8,8.5-2.6,13.1-2.6c6.1,0,11,1.8,14.5,5.3
	c3.5,3.5,5.3,8.2,5.3,14c0,2.6-0.8,7.6-2.3,14.9l-8.8,42.3h-20.2l8.9-42.4c1.3-6.3,2-10.1,2-11.3c0-2.6-0.8-4.6-2.3-6.1
	c-1.5-1.5-3.6-2.2-6.4-2.2c-3,0-6.2,1.2-9.9,3.7c-3.6,2.5-6.4,5.8-8.5,9.8c-1.5,2.9-3.2,8.8-5.1,17.8l-6.4,30.7h-20.2
	C696.3,124.8,711.9,50.2,711.9,50.2z"/>
<path class="st4" d="M269.9,82.6l21.4,3.2c-4.2,11.6-10.4,20.4-18.8,26.5c-8.3,6.1-18.1,9.2-29.3,9.2c-12.6,0-22.5-3.8-29.6-11.4
	c-7.1-7.6-10.7-18.6-10.7-33c0-11.7,2.4-22.4,7.1-32.2c4.8-9.7,11.4-17.2,19.8-22.3s17.6-7.7,27.6-7.7c11.2,0,20.2,3,27.1,9
	c6.9,6,11,14.1,12.2,24.4l-20.3,2c-1.1-6-3.3-10.3-6.5-13s-7.5-4-12.8-4c-5.9,0-11.3,1.8-16.4,5.3c-5.1,3.6-9.2,9.1-12.2,16.7
	c-3,7.6-4.6,15.1-4.6,22.7c0,8.2,2,14.6,5.9,19.1c4,4.5,8.9,6.7,14.8,6.8c5.5,0,10.5-1.8,15.1-5.3C264.2,94.9,267.6,89.6,269.9,82.6
	z M298.3,119.7l21.6-103.1H341l-21.5,103.1H298.3z M339.8,119.7l21.6-103.1h21.2l-17.9,85.8H417l-3.6,17.2H339.8z M430,88.7
	c0-13.8,3.9-24.8,11.7-33.1c7.8-8.2,18.1-12.3,30.8-12.3c11,0,19.6,3,25.8,9.1s9.3,14.2,9.3,24.5c0,12.1-3.9,22.6-11.6,31.4
	c-7.7,8.8-18.1,13.2-31.1,13.2c-7,0-13.3-1.4-18.7-4.2c-5.4-2.8-9.5-6.8-12.2-12C431.3,100.2,430,94.6,430,88.7z M487.5,74.3
	c0-4.8-1.4-8.6-4.2-11.5c-2.8-2.9-6.4-4.3-10.8-4.3c-4.4,0-8.2,1.3-11.6,4c-3.4,2.7-6,6.6-7.9,11.7c-1.9,5.1-2.8,9.8-2.8,14.2
	c0,5.3,1.5,9.6,4.4,12.7c2.9,3.1,6.6,4.7,11,4.7c5.5,0,10.2-2.4,13.9-7.1C484.8,92.1,487.5,83.9,487.5,74.3z M513.9,123.7l21.3,3.1
	c0,2.2,0.3,3.8,1,4.9c0.7,1.1,1.8,2,3.4,2.8c1.6,0.8,3.7,1.2,6.4,1.2c4.3,0,7.7-0.8,10.3-2.5c1.9-1.3,3.5-3.4,4.7-6.3
	c0.8-1.8,1.7-5.8,2.9-12l0.7-3.5c-7,5.8-14.2,8.7-21.7,8.7c-7.3,0-13.3-2.6-18-7.7c-4.7-5.2-7-12.7-7-22.6c0-8.8,1.6-16.8,4.8-24.1
	s7.7-12.8,13.4-16.6c5.8-3.8,11.7-5.6,17.7-5.6c5,0,9.5,1.3,13.6,3.9s7.3,6.3,9.6,11l2.8-13.2h18.9l-12.9,62.2
	c-2.1,10-3.9,17.1-5.4,21.4c-1.4,4.3-3.1,7.7-5,10.2s-4.2,4.7-7.1,6.4c-2.9,1.7-6.2,3-10.1,3.7c-3.9,0.8-8.1,1.1-12.6,1.1
	c-10.6,0-18.5-1.8-23.9-5.4c-5.4-3.6-8.1-9.6-8.1-18C513.7,125.7,513.8,124.8,513.9,123.7z M537.7,87.6c0,5.7,1.3,10,3.8,13
	c2.6,3,5.8,4.5,9.6,4.5c3.5,0,6.9-1.3,10.2-4c3.3-2.7,5.8-6.5,7.6-11.4c1.8-4.9,2.6-9.7,2.6-14.3c0-5.3-1.4-9.6-4.3-12.8
	c-2.9-3.2-6.2-4.9-9.9-4.9c-3.6,0-6.9,1.4-10,4.3c-3,2.9-5.5,7.3-7.5,13.2C538.5,79.8,537.7,83.9,537.7,87.6z M605.9,88.7
	c0-13.8,3.9-24.8,11.7-33.1c7.8-8.2,18.1-12.3,30.8-12.3c11,0,19.6,3,25.8,9.1s9.3,14.2,9.3,24.5c0,12.1-3.9,22.6-11.6,31.4
	c-7.7,8.8-18.1,13.2-31.1,13.2c-7,0-13.3-1.4-18.7-4.2c-5.4-2.8-9.5-6.8-12.2-12C607.2,100.2,605.9,94.6,605.9,88.7z M663.4,74.3
	c0-4.8-1.4-8.6-4.2-11.5c-2.8-2.9-6.4-4.3-10.8-4.3c-4.4,0-8.2,1.3-11.6,4c-3.4,2.7-6,6.6-7.9,11.7c-1.9,5.1-2.8,9.8-2.8,14.2
	c0,5.3,1.5,9.6,4.4,12.7c2.9,3.1,6.6,4.7,11,4.7c5.5,0,10.2-2.4,13.9-7.1C660.7,92.1,663.4,83.9,663.4,74.3z M706.8,45.1h19.1
	l-2,9.7c4.8-4.1,9.2-7.1,13.4-8.8c4.2-1.8,8.5-2.6,13.1-2.6c6.1,0,11,1.8,14.5,5.3c3.5,3.5,5.3,8.2,5.3,14c0,2.6-0.8,7.6-2.3,14.9
	l-8.8,42.3H739l8.9-42.4c1.3-6.3,2-10.1,2-11.3c0-2.6-0.8-4.6-2.3-6.1c-1.5-1.5-3.6-2.2-6.4-2.2c-3,0-6.2,1.2-9.9,3.7
	c-3.6,2.5-6.4,5.8-8.5,9.8c-1.5,2.9-3.2,8.8-5.1,17.8l-6.4,30.7h-20.2L706.8,45.1z"/>
</svg>
